<?xml version="1.0" encoding="UTF-8" standalone="no"?>
<!-- Created with Inkscape (http://www.inkscape.org/) -->

<svg
   width="100mm"
   height="100mm"
   viewBox="0 0 100 100"
   version="1.1"
   id="svg1"
   xml:space="preserve"
   sodipodi:docname="logo.svg"
   inkscape:version="1.3 (0e150ed6c4, 2023-07-21)"
   inkscape:export-filename="ra2ce.png"
   inkscape:export-xdpi="96"
   inkscape:export-ydpi="96"
   xmlns:inkscape="http://www.inkscape.org/namespaces/inkscape"
   xmlns:sodipodi="http://sodipodi.sourceforge.net/DTD/sodipodi-0.dtd"
   xmlns="http://www.w3.org/2000/svg"
   xmlns:svg="http://www.w3.org/2000/svg"><sodipodi:namedview
     id="namedview1"
     pagecolor="#ffffff"
     bordercolor="#000000"
     borderopacity="0.25"
     inkscape:showpageshadow="2"
     inkscape:pageopacity="0.0"
     inkscape:pagecheckerboard="0"
     inkscape:deskcolor="#d1d1d1"
     inkscape:document-units="mm"
     inkscape:zoom="0.73139029"
     inkscape:cx="293.27707"
     inkscape:cy="254.99381"
     inkscape:window-width="1920"
     inkscape:window-height="1017"
     inkscape:window-x="1912"
     inkscape:window-y="-8"
     inkscape:window-maximized="1"
     inkscape:current-layer="layer1" /><defs
     id="defs1" /><g
     inkscape:label="Laag 1"
     inkscape:groupmode="layer"
     id="layer1"><path
       style="fill:#0a28a4;fill-opacity:1;stroke-width:0.499587"
       d="M 45.779181,94.776917 C 25.869366,92.988304 9.2892666,78.468506 5.3354604,59.35884 4.6665156,56.125606 4.4408482,53.834142 4.4326488,50.191294 4.4244631,46.491445 4.579583,44.86701 5.2662881,41.467333 6.760902,34.068372 9.6842017,27.844202 14.457778,21.897254 22.488796,11.892169 34.717753,5.4882427 47.200132,4.7510943 l 1.685325,-0.099484 v 1.4084421 1.408443 l -1.222683,0.08933 C 34.052934,8.5531574 21.774718,15.726593 14.170259,27.12549 c -2.728138,4.089408 -4.7925208,8.982739 -5.8642371,13.900436 -0.6392032,2.933063 -0.817909,4.608794 -0.8893024,8.339203 -0.062539,3.263331 -0.048705,3.601948 0.1455153,3.601948 0.1878084,0 0.2145485,-0.231384 0.2145485,-1.850552 v -1.850521 h 1.0574485 1.0574649 v 2.907987 c 0,2.819881 0.00819,2.907959 0.2643723,2.907959 0.240607,0 0.2644,-0.08813 0.2644,-0.980516 v -0.980516 l 0.92556,-0.04393 0.925584,-0.0442 -3.06e-4,1.673713 -3e-4,1.673685 0.537643,0.09113 c 0.682056,0.115147 0.791611,0.01364 0.27163,-0.257578 -0.222679,-0.115146 -0.468235,-0.327703 -0.545659,-0.472399 -0.135665,-0.253486 -0.09782,-0.263036 1.042733,-0.263036 0.650907,0 1.277561,-0.0352 1.392549,-0.08022 0.177576,-0.06822 0.209091,0.0513 0.209091,0.79309 0,0.785204 0.02647,0.87331 0.2644,0.87331 0.255777,0 0.264345,-0.08813 0.264345,-2.714176 v -2.714175 l 1.420958,0.03875 1.42097,0.03874 0.06611,1.123522 c 0.03948,0.670576 0.101013,1.003654 0.152937,0.826133 0.07774,-0.26631 0.170755,-0.297389 0.892228,-0.297389 h 0.805464 l -0.0161,0.561788 c -0.0082,0.309094 -0.04308,0.4545 -0.07716,0.323392 -0.0495,-0.191274 -0.09959,-0.207372 -0.252067,-0.08022 -0.154137,0.127971 -0.174984,0.118148 -0.109825,-0.05184 0.05872,-0.153073 0.006,-0.204098 -0.19523,-0.188545 -0.259243,0.0191 -0.275682,0.09796 -0.275682,1.31444 0,0.774345 0.0531,1.293676 0.132117,1.293676 0.07356,0 0.132118,-0.354634 0.132118,-0.799666 v -0.79972 l 0.760066,0.03984 0.760044,0.03984 0.04049,0.789924 c 0.03782,0.736772 0.199842,1.065867 0.448828,0.91192 0.05793,-0.0352 0.105405,-1.134272 0.105405,-2.440963 V 51.90395 l 1.487055,0.03902 1.487057,0.03875 -0.04753,2.328763 c -0.02619,1.280851 -0.0082,2.455588 0.04191,2.610571 0.06311,0.199187 0.19785,0.28159 0.457949,0.28159 0.358528,0 0.370817,-0.02183 0.4528,-0.892192 0.0463,-0.490763 0.08478,-1.293785 0.08516,-1.784466 l 9.42e-4,-0.892246 h 0.594828 c 0.542508,0 0.594826,-0.02838 0.594826,-0.3226 0,-0.475783 0.239214,-0.539987 0.42624,-0.114328 0.08955,0.204098 0.238614,0.418483 0.331023,0.476656 0.124478,0.07831 0.167944,0.652295 0.167944,2.213999 v 2.108376 h 0.33044 c 0.330049,0 0.330437,-0.0015 0.330437,-1.296295 v -1.296322 l 0.91995,-0.445005 c 0.505972,-0.244754 0.951257,-0.526589 0.989498,-0.626291 0.07455,-0.194275 0.857935,-0.565936 1.192598,-0.565936 0.168381,0 0.205299,0.239843 0.219051,1.420964 0.01392,1.173918 0.0355,1.317551 0.126033,0.826133 0.0603,-0.32732 0.07575,-1.102456 0.03474,-1.722909 -0.0812,-1.22647 -0.02876,-1.348929 0.647176,-1.518674 l 0.360361,-0.09032 -0.01201,1.27624 c -0.0082,0.701928 0.02374,1.31283 0.06854,1.357606 0.04472,0.04502 0.08139,-1.088486 0.08139,-2.518236 v -2.599575 h 1.04025 1.040229 l -0.05673,1.982779 c -0.04912,1.711967 -0.02939,1.982697 0.144505,1.982697 0.162569,0 0.208519,-0.229474 0.239215,-1.190972 l 0.03826,-1.19089 1.288761,-0.05157 1.288767,-0.05157 v 2.696385 2.696358 h 0.462639 0.462643 V 53.633736 50.19695 h 1.255734 1.255735 v 2.775869 c 0,2.687681 0.0082,2.775787 0.264372,2.775787 0.250784,0 0.265655,-0.09659 0.290283,-1.883568 0.01392,-1.035988 0.01392,-2.285106 -0.002,-2.775814 -0.02729,-0.848126 -0.01392,-0.89222 0.271439,-0.891647 0.28058,5.19e-4 0.300428,0.05621 0.304758,0.855002 0.0038,0.658734 -0.04191,0.866925 -0.198231,0.9093 -0.111654,0.03165 0.04991,0.06194 0.358879,0.07012 0.539463,0.01637 0.561772,-4.36e-4 0.561772,-0.381155 0,-0.35267 0.04409,-0.396572 0.396537,-0.396572 h 0.396558 v 1.652293 1.652238 h 1.123546 1.123532 v 1.306418 c 0,1.506751 -0.0409,1.464403 1.420969,1.467596 l 0.826125,0.002 v 1.92556 c 0,1.772215 -0.01801,1.920022 -0.231302,1.856064 -0.33227,-0.09987 -5.59465,-0.706321 -7.699582,-0.887444 -2.226889,-0.191547 -8.603396,-0.219378 -16.192296,-0.07013 -6.17832,0.121422 -7.848848,0.05457 -11.345489,-0.452781 -1.005591,-0.145979 -2.575724,-0.442876 -3.4891802,-0.659935 -0.9134504,-0.216649 -1.6806323,-0.37488 -1.704843,-0.350704 -0.049906,0.04993 0.6465158,2.730902 0.964704,3.71401 l 0.209255,0.646592 2.5937632,-0.07858 c 1.426569,-0.04339 3.456255,-0.199187 4.510394,-0.345657 5.615917,-0.782366 6.87492,-0.939505 9.054472,-1.130152 3.769747,-0.329667 9.379213,-0.476901 12.613064,-0.33084 4.022793,0.181451 5.539173,0.319135 8.823311,0.800129 0.957686,0.14025 1.775557,0.255123 1.81749,0.255123 0.04191,0 0.07615,0.661708 0.07615,1.470498 v 1.47057 l -0.429591,-0.09113 c -4.332845,-0.915384 -7.776627,-1.273156 -13.087109,-1.359461 -6.064747,-0.0985 -8.796792,0.115964 -13.977154,1.098554 -3.059852,0.580288 -9.475238,2.194299 -10.140876,2.551334 -0.114464,0.06139 0.03239,0.468389 0.505533,1.403556 0.780587,1.542222 0.892325,1.698706 1.094104,1.532727 0.332819,-0.274005 5.925267,-2.031894 8.4303,-2.650218 7.168618,-1.769541 13.554603,-2.31553 20.004345,-1.710412 1.43927,0.135065 3.433561,0.413298 6.175044,0.861659 l 1.416503,0.231657 -0.02843,13.919645 -0.02843,13.919592 -1.255734,-0.02183 c -0.690635,-0.01364 -1.493645,-0.04339 -1.784458,-0.06985 z M 30.635068,56.238651 c -0.006,-0.73216 -0.04671,-1.003627 -0.122841,-0.82616 -0.16055,0.373761 -0.16055,1.916638 0,1.916638 0.0782,0 0.128462,-0.445386 0.122841,-1.090478 z m 20.000668,31.409107 0.03394,-7.22103 0.727012,-0.04611 c 1.65766,-0.104777 2.664158,-0.200005 2.844711,-0.269584 0.120849,-0.04639 0.236268,0.04338 0.311899,0.242298 0.187426,0.492837 1.134233,1.271765 1.667507,1.371823 1.503111,0.281917 2.818913,-0.720073 2.877583,-2.191462 0.01201,-0.28983 0.07856,-0.526889 0.148735,-0.526889 0.216949,0 3.563425,-1.690302 3.913701,-1.976831 l 0.330437,-0.270402 -0.317015,-0.246664 c -0.313986,-0.244208 -0.322756,-0.242844 -0.915079,0.156621 -0.328917,0.221833 -1.22198,0.682282 -1.98455,1.022836 l -1.386499,0.619143 -0.474264,-0.498048 c -1.094423,-1.149279 -2.810876,-0.911838 -3.678991,0.508962 -0.163142,0.267401 -0.297047,0.610548 -0.297394,0.763266 -4.99e-4,0.255669 -0.09722,0.284428 -1.210617,0.363611 -0.66548,0.0472 -1.527963,0.08568 -1.916644,0.08568 H 50.603513 V 73.65289 67.770749 l 0.561775,-9.55e-4 c 0.798285,-0.001 3.019585,-0.349559 4.262853,-0.668749 1.469377,-0.377254 3.495475,-1.208707 4.643475,-1.905669 l 0.966649,-0.586891 0.896039,1.372941 c 0.492804,0.755162 0.940633,1.377388 0.995169,1.382791 0.05454,0.0055 0.210865,-0.101776 0.347411,-0.238205 0.242899,-0.243117 0.228683,-0.277797 -0.656,-1.619223 L 61.71661,64.13584 62.207389,63.749609 c 1.372308,-1.080011 3.00734,-3.021207 4.183624,-4.967013 1.168486,-1.932846 2.223386,-4.960236 2.407505,-6.90899 0.08175,-0.864606 0.10123,-0.903952 0.582978,-1.174709 0.274198,-0.154165 0.598334,-0.465333 0.720376,-0.691641 0.209418,-0.388578 0.271194,-0.413899 1.100901,-0.454882 0.483464,-0.02183 0.894593,-0.05867 0.913636,-0.07804 0.01801,-0.0191 -0.002,-0.222925 -0.04892,-0.45229 -0.08336,-0.4172 -0.08459,-0.417636 -0.940228,-0.417636 -0.758162,0 -0.886798,-0.03929 -1.1187,-0.33316 -0.325094,-0.413272 -0.909505,-0.724357 -1.3609,-0.724357 -0.482746,0 -1.353931,0.473654 -1.454607,0.790907 -0.08358,0.263308 -0.177767,0.266582 -8.337078,0.266582 H 50.603517 V 34.262592 19.920903 l 0.363521,1.56e-4 c 0.612144,2.34e-4 3.748742,0.392976 4.65941,0.583401 0.893351,0.18688 1.050954,0.136947 1.05544,-0.333952 0.002,-0.282443 -1.977674,-0.708241 -4.340719,-0.9335 L 50.603534,19.071575 V 11.876567 4.68154 l 1.549769,0.092444 c 10.797558,0.645509 21.506148,5.433051 29.107357,13.013118 6.948837,6.929462 11.230355,15.088716 12.945883,24.670979 0.438846,2.451277 0.585362,4.927438 0.509958,8.618965 -0.07313,3.579764 -0.269748,5.554139 -0.833118,8.36638 -3.058651,15.267986 -14.199697,27.856383 -29.202461,32.996214 -3.897164,1.335123 -9.787036,2.428603 -13.081437,2.428603 H 50.601288 Z M 69.831209,77.310414 c 1.145197,-0.535866 2.33541,-1.671939 2.851346,-2.721516 0.972418,-1.978249 0.802837,-3.897752 -0.52774,-5.974013 -0.166962,-0.260034 -0.09722,-0.372533 0.984527,-1.586152 0.640265,-0.7183 1.404314,-1.62348 1.697907,-2.011511 0.464986,-0.614559 0.512731,-0.739228 0.37035,-0.967201 -0.161368,-0.258124 -0.158748,-0.258124 0.206718,0.0027 1.055137,0.755817 2.475588,0.628201 3.410131,-0.306256 0.951836,-0.951796 1.069331,-2.190463 0.320723,-3.381189 -0.371363,-0.590711 -0.37347,-0.605664 -0.169173,-1.189635 0.584144,-1.670056 1.471621,-5.227118 1.337093,-5.359045 -0.01801,-0.0191 -0.190591,-0.0027 -0.38139,0.03165 -0.315853,0.06112 -0.367775,0.163443 -0.577846,1.144914 -0.421931,1.970909 -1.155462,4.316699 -1.349838,4.316699 -0.02971,0 -0.308709,-0.06412 -0.620504,-0.142978 -2.17823,-0.548472 -4.071258,2.312229 -2.730321,4.125945 0.241453,0.32654 0.252258,0.401003 0.088,0.606875 -0.845004,1.058717 -2.876398,3.454931 -3.094889,3.650707 -0.266337,0.238478 -0.285227,0.234931 -0.896375,-0.185817 -2.309153,-1.588771 -5.100905,-1.303525 -7.14204,0.729678 -1.319854,1.314686 -1.870741,2.746018 -1.72519,4.482215 0.185843,2.217137 2.00744,4.4307 4.156883,5.051452 0.386736,0.1116 1.060892,0.16317 1.770973,0.134792 0.946024,-0.03875 1.299411,-0.117056 2.020745,-0.454663 z M 80.523462,52.506169 c 3.718559,-1.523259 4.659814,-6.430069 1.78965,-9.329379 -0.920632,-0.929983 -1.879442,-1.402082 -3.236759,-1.593792 -3.256738,-0.459903 -6.144239,1.593355 -6.68631,4.754609 -0.484588,2.825775 1.326323,5.648794 4.121445,6.424994 1.139846,0.316379 2.885662,0.204916 4.011974,-0.256214 z M 78.971346,40.383731 c -0.0465,-0.233021 -0.388021,-1.169607 -0.758819,-2.081854 -0.370819,-0.912247 -0.733563,-1.807304 -0.806165,-1.989055 -0.111462,-0.279379 -0.06093,-0.435591 0.326385,-1.008948 0.733083,-1.085048 0.752587,-2.077543 0.06093,-3.104281 -0.610937,-0.907008 -2.250483,-1.381918 -3.135597,-0.908209 -0.259952,0.139431 -0.334494,0.101776 -0.704501,-0.352669 -1.124691,-1.381154 -2.487215,-2.767137 -3.835489,-3.901518 -0.766235,-0.64471 -0.777941,-0.649212 -0.970538,-0.374116 -0.184998,0.264126 -0.13692,0.33275 0.948087,1.347728 1.364452,1.276595 2.217115,2.166822 3.007419,3.139944 l 0.58479,0.719991 -0.334928,0.599252 c -0.698209,1.249199 -0.255286,2.796879 1.013074,3.540172 0.515432,0.301808 0.762887,0.361264 1.429068,0.342928 l 0.805701,-0.02183 0.67602,1.617832 c 0.371791,0.889818 0.75066,1.896965 0.84192,2.238119 0.149554,0.559278 0.203826,0.620289 0.551553,0.620289 0.363404,0 0.380766,-0.02183 0.301028,-0.42323 z M 64.54903,28.973181 c 2.310354,-0.643591 4.160595,-3.169631 4.160595,-5.680326 0,-2.971794 -2.410588,-5.623264 -5.311418,-5.842168 -2.956051,-0.223143 -5.35993,1.490371 -6.236621,4.445241 -0.750821,2.530531 0.635133,5.524416 3.119382,6.738281 1.366992,0.667984 2.705351,0.774262 4.268062,0.339026 z m -2.287783,-3.28284 0.05891,-1.802635 H 61.41877 c -0.49577,0 -0.90139,-0.04109 -0.90139,-0.0904 0,-0.04993 0.603265,-1.123966 1.340602,-2.386923 0.836384,-1.432681 1.387318,-2.249613 1.464823,-2.172132 0.06955,0.06944 0.104832,0.887659 0.08036,1.85838 l -0.0439,1.734192 0.906378,-1.89e-4 c 0.688167,-1.58e-4 0.890525,0.04109 0.840597,0.171301 -0.03591,0.09449 -0.497816,0.852676 -1.025876,1.685317 -0.528085,0.832687 -1.104427,1.76619 -1.280808,2.074519 -0.55516,0.970366 -0.602165,0.876858 -0.538426,-1.071132 z m -6.196474,55.042152 c -0.504248,-0.307511 -0.704725,-0.647274 -0.72669,-1.231764 -0.04349,-1.154572 1.10996,-1.884577 2.137738,-1.353131 1.122389,0.580451 1.047765,2.035004 -0.135856,2.647025 -0.501282,0.259215 -0.769583,0.246118 -1.275214,-0.06194 z M 50.603828,58.270381 v -8.739404 h 8.170804 8.1708 l 0.217796,0.456655 c 0.119648,0.251303 0.396818,0.549264 0.615693,0.662473 0.442552,0.229201 0.439166,0.08595 0.0501,2.112359 -0.914659,4.763696 -3.973793,9.206511 -7.976446,11.584481 -2.388383,1.418918 -5.067027,2.243796 -8.356459,2.573436 l -0.89223,0.0895 z m -29.906704,-9.40466 c -1.337292,-0.333924 -2.848277,-1.434934 -3.653354,-2.66176 -1.49812,-2.282977 -1.508742,-5.183515 -0.02729,-7.47547 1.134291,-1.75497 3.133933,-2.818053 5.285464,-2.809976 0.580673,0.002 2.076027,0.271766 2.550716,0.459848 0.176757,0.06985 0.329037,-0.124697 0.74084,-0.947037 0.285069,-0.569346 0.798528,-1.507678 1.140987,-2.085155 0.706787,-1.191818 0.789586,-1.749622 0.378075,-2.54705 -0.51732,-1.002509 -1.611163,-1.364483 -2.643276,-0.874702 -0.896897,0.425632 -1.226712,1.595948 -0.738355,2.620012 0.216622,0.454227 0.214876,0.479822 -0.04931,0.74403 l -0.273596,0.273377 -0.292401,-0.309722 c -0.50333,-0.533574 -0.716689,-1.07517 -0.724804,-1.839883 -0.0101,-0.969029 0.518701,-1.862858 1.439309,-2.432013 0.55059,-0.340609 0.778244,-0.400092 1.526962,-0.400092 1.160346,0 1.996798,0.482414 2.577552,1.486559 0.218123,0.377254 0.426303,0.684738 0.46264,0.683647 0.03629,-0.0011 0.333754,-0.333188 0.660909,-0.737564 0.32716,-0.404539 1.123284,-1.264425 1.76918,-1.910799 l 1.174379,-1.175309 -0.336641,-0.759419 c -0.497899,-1.123276 -0.622805,-1.700551 -0.621885,-2.874355 9e-4,-1.170867 0.200223,-2.075611 0.655056,-2.974076 0.825544,-1.630737 2.101944,-2.786455 3.671436,-3.324366 1.254433,-0.42992 3.052618,-0.426136 4.276461,0.0079 1.138687,0.404837 2.171038,1.12404 2.828498,1.970621 0.60661,0.781035 0.449872,0.767185 2.729139,0.241479 0.774053,-0.178694 1.91907,-0.367111 2.544518,-0.41935 l 1.137161,-0.09482 v 0.54439 c 0,0.525932 -0.01392,0.544344 -0.42959,0.54489 -0.917464,0.0011 -4.512476,0.688304 -4.754075,0.90873 -0.05212,0.04759 0.0015,0.442287 0.118857,0.877318 0.337304,1.248834 0.281781,2.730397 -0.141668,3.785437 l -0.353144,0.879531 0.519222,1.303226 c 0.285576,0.716798 0.587049,1.555237 0.669987,1.863239 0.12385,0.459821 0.207154,0.559987 0.466009,0.559987 0.173374,0 0.499639,0.155257 0.725028,0.344866 0.394911,0.332423 0.439768,0.339818 1.232823,0.202734 0.452658,-0.07804 1.075825,-0.179268 1.384791,-0.22429 l 0.561777,-0.08186 v 0.529836 c 0,0.595649 0.125269,0.535921 -1.751409,0.835465 -0.563436,0.09004 -1.024411,0.206553 -1.024411,0.259761 0,0.05321 -0.152337,0.277469 -0.338434,0.498457 -0.382288,0.454364 -1.098296,0.653905 -1.571882,0.438129 -0.262572,-0.119785 -0.4545,-0.03902 -1.410844,0.598432 -2.597117,1.729049 -4.93457,3.989024 -6.529757,6.313477 -0.755174,1.100382 -0.764895,1.126249 -0.613306,1.632156 0.08475,0.282872 0.153946,0.719063 0.153946,0.96952 v 0.4554 l 6.48257,2.55821 c 3.565427,1.407021 6.512679,2.606888 6.549435,2.666316 0.03667,0.05976 0.02843,0.311632 -0.01801,0.560561 l -0.08481,0.452426 -0.615486,-0.243936 c -0.338516,-0.134246 -1.477978,-0.58026 -2.532136,-0.991294 -2.527565,-0.985591 -9.618149,-3.824217 -10.072251,-4.032244 -0.296507,-0.135884 -0.434096,-0.126607 -0.813079,0.05321 -0.250894,0.118693 -0.509558,0.216377 -0.57482,0.216377 -0.120849,0 -0.622925,2.275692 -0.780206,3.535861 l -0.08655,0.69396 h -0.521206 -0.521208 l 0.0854,-0.760047 c 0.131082,-1.165104 0.321075,-2.207996 0.527302,-2.893279 0.195421,-0.64943 0.167944,-0.840895 -0.120849,-0.840895 -0.09482,0 -0.329307,-0.2262 -0.52093,-0.502769 -0.949089,-1.369503 0.132281,-3.196398 1.785601,-3.016475 l 0.613928,0.06658 0.495936,-0.803485 c 1.492584,-2.418179 4.869882,-5.676926 7.536446,-7.271837 0.638999,-0.382329 0.719476,-0.479166 0.719476,-0.866761 0,-0.239843 0.0976,-0.585445 0.217031,-0.767578 0.205899,-0.314469 0.198041,-0.380009 -0.151736,-1.28418 -0.202871,-0.524051 -0.481734,-1.178939 -0.619697,-1.455289 l -0.250839,-0.502442 -0.666019,0.598788 c -2.342101,2.105783 -5.966597,2.207205 -8.54489,0.239297 l -0.616812,-0.470817 -1.240122,1.310238 c -1.932718,2.041935 -3.792435,4.671715 -4.963652,7.018951 l -0.474124,0.950174 0.776037,0.776037 c 1.831943,1.83197 2.477479,4.638208 1.599159,6.951773 -0.668325,1.760427 -2.143255,3.288843 -3.791213,3.928695 -0.861882,0.334715 -3.021453,0.473764 -3.909716,0.251848 z m 16.25616,-21.489007 c -0.0439,-0.0442 -0.157931,-0.04857 -0.253349,-0.01364 -0.105405,0.04202 -0.07416,0.07367 0.07976,0.07967 0.139322,0.0055 0.217441,-0.02838 0.173565,-0.06958 z M 36.05063,27.06099 c -1.497192,-0.791316 -2.097652,-2.530681 -1.392207,-4.032755 0.170755,-0.363603 0.756156,-1.166505 1.300972,-1.784477 1.643414,-1.863955 1.383792,-1.8867 2.401933,0.210292 0.482506,0.993851 0.911649,2.022275 0.953664,2.285379 0.07053,0.441984 0.0451,0.490116 -0.333992,0.632998 -0.565038,0.213021 -0.874566,0.94418 -0.6665,1.574646 0.275461,0.834756 1.014495,1.072743 1.815107,0.584599 0.941896,-0.574285 1.396394,-2.038865 1.035538,-3.336844 -0.270429,-0.972769 -0.574926,-1.448727 -1.904034,-2.976343 -0.585445,-0.672893 -1.211,-1.410704 -1.390088,-1.639556 l -0.32564,-0.416033 -0.443384,0.51099 c -0.243853,0.280897 -0.794732,0.899832 -1.224164,1.375168 -1.62918,1.803238 -2.095126,2.669757 -2.099456,3.904367 -0.002,0.898279 0.272339,1.661693 0.805379,2.231803 0.445646,0.476656 1.463969,1.140793 1.737217,1.132989 0.113046,-0.0027 -0.0082,-0.118693 -0.270375,-0.257578 z"
       id="path1"
       sodipodi:nodetypes="csccssccccsscsscccssscccccccsscssscccscsccccscssscccscscccccscccsscsscsscssscscccccsccccsccccccccccccssccscccsscccccsccsccccccscccccsssccscscccssccccccccscccccsccscccsscscccsccccssccscccssssccccscssscccscccccccsssssscccscssccssccccscscccsscccccscsccccsccsccsccscscccsssccsscssssccssscccscsscccccsccccccccssccccscccssssscccccssscscsssscscccscscccsssccscscscccssscsccccsscssccccsscccscsccscsscsscsscccccscccscssssssscccccsccc" /><path
       style="fill:#0a28a4;fill-opacity:1;stroke:none;stroke-width:0.431452"
       d="m 78.022299,50.376155 v -1.418563 h 0.567433 v 1.418563 c 0.666386,0 2.494178,0.317034 2.956024,-0.230292 0.294793,-0.349259 0.06546,-0.979125 -9.5e-4,-1.37758 l -0.535323,-3.215416 c -0.06388,-0.380883 -0.06153,-0.984582 -0.380111,-1.253811 -0.435124,-0.367731 -1.501359,-0.164806 -2.03964,-0.164806 v 0.567436 H 78.022299 V 44.13425 c -0.538281,0 -1.604516,-0.203007 -2.039637,0.164806 -0.318598,0.269311 -0.316243,0.872928 -0.380114,1.253811 l -0.53532,3.215416 c -0.06641,0.398455 -0.295743,1.028321 -9.53e-4,1.37758 0.461846,0.54719 2.289638,0.230292 2.956024,0.230292 m 0.56743,-5.10687 v 0.851127 h -0.56743 v -0.851127 h 0.567433 m 0,1.418563 v 1.41859 h -0.567433 v -1.41859 z"
       id="path4" /><path
       style="fill:#ffffff;stroke-width:0.230423"
       d="m 21.229801,45.923599 c -1.254174,-0.470735 -1.467852,-0.473245 -2.11902,-0.02456 -0.59121,0.407159 -0.61383,0.370678 -0.586269,-0.945972 l 0.02265,-1.088104 0.650306,-0.280771 0.650306,-0.280799 0.569016,-0.0055 0.569016,-0.0055 1.178679,0.52839 c 1.224334,0.548827 1.411134,0.715079 1.09674,0.975987 l -0.130426,0.108324 -1.032026,-0.298261 c -1.201365,-0.347185 -1.15361,-0.340936 -1.15361,-0.150618 v 0.147616 l 1.062281,0.306993 c 1.471334,0.425223 1.969108,0.209828 1.587791,-0.686811 -0.06388,-0.150072 1.502336,-1.134518 1.805206,-1.134518 0.233021,0 0.584587,0.343202 0.584587,0.570656 0,0.320854 -0.165242,0.481268 -1.628884,1.581378 l -1.462841,1.099482 -0.303443,-0.0082 c -0.16688,-0.0055 -0.778977,-0.187726 -1.360187,-0.405795 z m 1.43689,-2.66738 c -0.324289,-0.166171 -0.417893,-0.298998 -0.419546,-0.596004 l -0.0012,-0.223471 h 0.812883 0.812882 v 0.196458 c 0,0.582579 -0.638809,0.912847 -1.204974,0.622962 z m -0.782603,-1.612101 c -0.858745,-1.36964 -0.255396,-2.784109 1.187574,-2.784109 1.459343,0 2.021783,1.447813 1.112755,2.864411 l -0.24841,0.387104 H 23.578686 23.22136 v -0.706021 -0.706048 l 0.177768,-0.189091 c 0.238914,-0.254303 0.0803,-0.461266 -0.17583,-0.229473 l -0.164507,0.14898 -0.164506,-0.14898 c -0.256159,-0.23193 -0.41475,-0.02456 -0.17583,0.229473 l 0.177768,0.189091 v 0.706048 0.706021 h -0.359532 -0.359532 z"
       id="path8" /><path
       style="fill:#0a28a4;fill-opacity:1;stroke-width:0.478694"
       d="m 67.549227,75.058187 c 0,-0.517885 -0.05228,-0.591065 -0.422183,-0.591065 -0.55507,0 -0.532859,-0.201915 0.126661,-1.15168 l 0.548838,-0.790362 0.05242,0.633277 c 0.04505,0.544407 0.110235,0.633277 0.464402,0.633277 0.226581,0 0.411989,0.07122 0.411989,0.158531 0,0.232202 -0.906897,1.687573 -1.055457,1.693822 -0.06966,0.0027 -0.126661,-0.26058 -0.126661,-0.585718 z m 2.026477,-1.063901 c 0,-0.54307 -0.270621,-0.87814 -0.709268,-0.87814 -0.220333,0 -0.303972,-0.130153 -0.303972,-0.472836 0,-0.594449 -0.277306,-0.87814 -0.858303,-0.87814 -0.370293,0 -0.579974,0.194821 -1.148338,1.067231 -0.38243,0.586972 -0.695327,1.156919 -0.695327,1.266526 0,0.503915 -1.327128,-0.03875 -1.645253,-0.672841 -0.203171,-0.404895 -0.265874,-0.793663 -0.231794,-1.436845 0.02292,-0.434008 0.941746,-1.406202 1.328907,-1.406202 0.148626,0 0.465756,-0.231657 0.70472,-0.514638 1.145609,-1.357033 3.246707,-1.089823 4.066513,0.517121 0.188845,0.37016 0.459247,0.673032 0.600902,0.673032 0.504829,0 1.086568,0.789488 1.086568,1.474581 0,0.841795 -0.36745,1.341699 -1.144872,1.557611 -0.931419,0.25867 -1.050478,0.225108 -1.050478,-0.29646 z"
       id="path6" /></g></svg>
